<svg width="52" height="54" viewBox="0 0 52 54" fill="none" xmlns="http://www.w3.org/2000/svg">
<g clip-path="url(#clip0)">
<path d="M47.9375 7.59485H4.0625C1.82244 7.59485 0 9.45233 0 11.7355V41.548C0 43.8311 1.82244 45.6886 4.0625 45.6886H47.9375C50.1776 45.6886 52 43.8311 52 41.548V11.7355C52 9.45233 50.1776 7.59485 47.9375 7.59485ZM1.625 41.548V14.2198H12.1875V44.0323H4.0625C2.71842 44.0323 1.625 42.9178 1.625 41.548ZM47.9375 44.0323H13.8125V14.2198H45.5C45.9487 14.2198 46.3125 13.8491 46.3125 13.3917C46.3125 12.9344 45.9487 12.5636 45.5 12.5636H1.625V11.7355C1.625 10.3657 2.71842 9.2511 4.0625 9.2511H47.9375C49.2816 9.2511 50.375 10.3657 50.375 11.7355V12.5636H48.75C48.3013 12.5636 47.9375 12.9344 47.9375 13.3917C47.9375 13.8491 48.3013 14.2198 48.75 14.2198H50.375V41.548C50.375 42.9178 49.2816 44.0323 47.9375 44.0323Z" fill="#4D4D4D"/>
<path d="M4.0625 10.0792C3.84922 10.0792 3.63898 10.1672 3.48766 10.3214C3.33633 10.4757 3.25 10.6889 3.25 10.9073C3.25 11.1257 3.33633 11.339 3.48766 11.4932C3.63898 11.6474 3.84922 11.7355 4.0625 11.7355C4.27578 11.7355 4.485 11.6474 4.63734 11.4932C4.78867 11.339 4.875 11.1257 4.875 10.9073C4.875 10.6889 4.78867 10.4757 4.63734 10.3214C4.48602 10.1672 4.27578 10.0792 4.0625 10.0792Z" fill="#4D4D4D"/>
<path d="M6.5 10.0792C6.28672 10.0792 6.07648 10.1672 5.92516 10.3214C5.77383 10.4757 5.6875 10.6889 5.6875 10.9073C5.6875 11.1257 5.77383 11.339 5.92516 11.4932C6.07648 11.6474 6.28672 11.7355 6.5 11.7355C6.71328 11.7355 6.9225 11.6474 7.07484 11.4932C7.22617 11.339 7.3125 11.1257 7.3125 10.9073C7.3125 10.6889 7.22617 10.4757 7.07484 10.3214C6.92352 10.1672 6.71328 10.0792 6.5 10.0792Z" fill="#4D4D4D"/>
<path d="M8.9375 10.0792C8.72422 10.0792 8.51398 10.1672 8.36266 10.3214C8.21133 10.4757 8.125 10.6889 8.125 10.9073C8.125 11.1257 8.21133 11.339 8.36266 11.4932C8.51398 11.6474 8.72422 11.7355 8.9375 11.7355C9.15078 11.7355 9.36102 11.6474 9.51234 11.4932C9.66367 11.339 9.75 11.1247 9.75 10.9073C9.75 10.6899 9.66367 10.4757 9.51234 10.3214C9.36102 10.1672 9.1518 10.0792 8.9375 10.0792Z" fill="#4D4D4D"/>
<path d="M4.0625 17.5323H9.75C10.1987 17.5323 10.5625 17.1616 10.5625 16.7042C10.5625 16.2469 10.1987 15.8761 9.75 15.8761H4.0625C3.6138 15.8761 3.25 16.2469 3.25 16.7042C3.25 17.1616 3.6138 17.5323 4.0625 17.5323Z" fill="#4D4D4D"/>
<path d="M9.75 19.1886H4.0625C3.6138 19.1886 3.25 19.5594 3.25 20.0167C3.25 20.4741 3.6138 20.8448 4.0625 20.8448H9.75C10.1987 20.8448 10.5625 20.4741 10.5625 20.0167C10.5625 19.5594 10.1987 19.1886 9.75 19.1886Z" fill="#4D4D4D"/>
<path d="M9.75 22.5011H4.0625C3.6138 22.5011 3.25 22.8719 3.25 23.3292C3.25 23.7866 3.6138 24.1573 4.0625 24.1573H9.75C10.1987 24.1573 10.5625 23.7866 10.5625 23.3292C10.5625 22.8719 10.1987 22.5011 9.75 22.5011Z" fill="#4D4D4D"/>
<path d="M7.3125 25.8136H4.0625C3.6138 25.8136 3.25 26.1844 3.25 26.6417C3.25 27.0991 3.6138 27.4698 4.0625 27.4698H7.3125C7.7612 27.4698 8.125 27.0991 8.125 26.6417C8.125 26.1844 7.7612 25.8136 7.3125 25.8136Z" fill="#4D4D4D"/>
<path d="M7.3125 29.1261H4.0625C3.6138 29.1261 3.25 29.4969 3.25 29.9542C3.25 30.4116 3.6138 30.7823 4.0625 30.7823H7.3125C7.7612 30.7823 8.125 30.4116 8.125 29.9542C8.125 29.4969 7.7612 29.1261 7.3125 29.1261Z" fill="#4D4D4D"/>
<path d="M4.875 32.4386H4.0625C3.6138 32.4386 3.25 32.8094 3.25 33.2667C3.25 33.7241 3.6138 34.0948 4.0625 34.0948H4.875C5.3237 34.0948 5.6875 33.7241 5.6875 33.2667C5.6875 32.8094 5.3237 32.4386 4.875 32.4386Z" fill="#4D4D4D"/>
<path d="M18.0527 33.6438H25.9953V31.8609H20.7604C21.4825 28.9352 25.905 28.2952 25.905 25.0495C25.905 23.3123 24.7317 22.0323 22.2497 22.0323C20.7153 22.0323 19.3614 22.4895 18.4589 22.9466L19.0004 24.5923C19.8127 24.1809 20.7604 23.8152 21.9338 23.8152C22.8363 23.8152 23.6938 24.2266 23.6938 25.2781C23.6938 27.6552 18.504 27.8381 18.0527 33.6438ZM26.2209 30.8095H31.3204V33.6438H33.3512V30.8095H35.0661V29.0723H33.3512V22.0323H31.862L26.2209 29.4381V30.8095ZM28.5225 29.1638L31.4107 25.2323C31.4107 25.5523 31.3204 26.5581 31.3204 27.4723V29.1181H29.9666C29.5604 29.1181 28.7933 29.1638 28.5225 29.1638Z" fill="#4D4D4D"/>
<path d="M41.7902 30.8095C44.0014 30.8095 45.8066 28.9809 45.8066 26.7409C45.8066 24.5009 44.0014 22.6724 41.7902 22.6724C39.5789 22.6724 37.7737 24.5009 37.7737 26.7409C37.8189 28.9809 39.5789 30.8095 41.7902 30.8095Z" stroke="#4D4D4D" stroke-width="1.7688"/>
<path d="M44.3174 26.7409H42.1061V24.5009H41.5194V27.3351H44.3174V26.7409Z" fill="#4D4D4D"/>
</g>
<defs>
<clipPath id="clip0">
<rect width="52" height="53" fill="white" transform="translate(0 0.141724)"/>
</clipPath>
</defs>
</svg>
