<svg width="40" height="41" viewBox="0 0 40 41" fill="none" xmlns="http://www.w3.org/2000/svg">
<g clip-path="url(#clip0)">
<path d="M38.1561 38.6053H36.4426V13.7253C36.4426 12.5672 35.5004 11.6251 34.3425 11.6251H30.5125C29.3544 11.6251 28.4123 12.5673 28.4123 13.7253V38.6053H24.0614V24.9979C24.0614 23.8398 23.1193 22.8977 21.9612 22.8977H18.1312C16.9732 22.8977 16.0311 23.8399 16.0311 24.9979V38.6053H11.6801V31.5581C11.6801 30.4 10.7379 29.4579 9.57998 29.4579H5.7499C4.59186 29.4579 3.64975 30.4001 3.64975 31.5581V38.6053H1.84381C1.41233 38.6053 1.06256 38.955 1.06256 39.3865C1.06256 39.818 1.41233 40.1678 1.84381 40.1678H38.1561C38.5876 40.1678 38.9374 39.818 38.9374 39.3865C38.9374 38.955 38.5876 38.6053 38.1561 38.6053ZM10.1175 38.6053H5.21217V31.5581C5.21217 31.2616 5.45334 31.0204 5.74983 31.0204H9.57983C9.87631 31.0204 10.1175 31.2616 10.1175 31.5581V38.6053ZM22.4988 38.6053H17.5935V24.9979C17.5935 24.7014 17.8347 24.4602 18.1312 24.4602H21.9611C22.2576 24.4602 22.4988 24.7014 22.4988 24.9979V38.6053ZM34.8801 38.6053H29.9748V13.7253C29.9748 13.4288 30.216 13.1876 30.5125 13.1876H34.3425C34.639 13.1876 34.8801 13.4288 34.8801 13.7253V38.6053Z" fill="#4D4D4D"/>
<path d="M36.4408 0.989287C36.4517 0.776084 36.3767 0.559287 36.2139 0.396475C36.0511 0.233662 35.8343 0.158584 35.6211 0.1696C35.6085 0.169053 35.5961 0.167725 35.5833 0.167725H30.8567C30.4252 0.167725 30.0755 0.51749 30.0755 0.948975C30.0755 1.38046 30.4252 1.73022 30.8567 1.73022H33.7752L26.052 9.45351L23.1395 6.54101C22.993 6.39452 22.7943 6.31218 22.5871 6.31218C22.3799 6.31218 22.1812 6.39452 22.0347 6.54101L7.99022 20.5855C7.68514 20.8906 7.68514 21.3853 7.99022 21.6905C8.1428 21.8429 8.34272 21.9191 8.54264 21.9191C8.74257 21.9191 8.94257 21.8429 9.09507 21.6903L22.5871 8.19819L25.4996 11.1107C25.8047 11.4158 26.2994 11.4158 26.6045 11.1107L34.8801 2.83515V5.47655C34.8801 5.90804 35.2299 6.2578 35.6614 6.2578C36.0929 6.2578 36.4426 5.90804 36.4426 5.47655V1.0271C36.4426 1.01437 36.4413 1.00194 36.4408 0.989287Z" fill="#4D4D4D"/>
<path d="M5.90936 24.645C6.34084 24.645 6.69061 24.2952 6.69061 23.8638C6.69061 23.4323 6.34084 23.0825 5.90936 23.0825C5.47789 23.0825 5.12811 23.4323 5.12811 23.8638C5.12811 24.2952 5.47789 24.645 5.90936 24.645Z" fill="#4D4D4D"/>
</g>
<defs>
<clipPath id="clip0">
<rect width="40" height="40" fill="white" transform="translate(0 0.167725)"/>
</clipPath>
</defs>
</svg>
