<svg width="41" height="42" viewBox="0 0 41 42" fill="none" xmlns="http://www.w3.org/2000/svg">
<g clip-path="url(#clip0)">
<path d="M7.17498 5.05103C5.47963 5.05103 4.09998 6.43068 4.09998 8.12603C4.09998 9.82138 5.47963 11.201 7.17498 11.201C8.87033 11.201 10.25 9.82138 10.25 8.12603C10.25 6.43068 8.87033 5.05103 7.17498 5.05103ZM7.17498 9.83436C6.23334 9.83436 5.46664 9.06834 5.46664 8.12603C5.46664 7.18371 6.23334 6.41769 7.17498 6.41769C8.11661 6.41769 8.88331 7.18371 8.88331 8.12603C8.88331 9.06834 8.11661 9.83436 7.17498 9.83436Z" fill="#4D4D4D"/>
<path d="M34.1667 7.78439C34.5441 7.78439 34.8501 7.47845 34.8501 7.10106C34.8501 6.72366 34.5441 6.41772 34.1667 6.41772C33.7893 6.41772 33.4834 6.72366 33.4834 7.10106C33.4834 7.47845 33.7893 7.78439 34.1667 7.78439Z" fill="#4D4D4D"/>
<path d="M31.4333 7.78439C31.8107 7.78439 32.1167 7.47845 32.1167 7.10106C32.1167 6.72366 31.8107 6.41772 31.4333 6.41772C31.0559 6.41772 30.75 6.72366 30.75 7.10106C30.75 7.47845 31.0559 7.78439 31.4333 7.78439Z" fill="#4D4D4D"/>
<path d="M35.5333 9.83444C35.9107 9.83444 36.2166 9.5285 36.2166 9.15111C36.2166 8.77371 35.9107 8.46777 35.5333 8.46777C35.1559 8.46777 34.85 8.77371 34.85 9.15111C34.85 9.5285 35.1559 9.83444 35.5333 9.83444Z" fill="#4D4D4D"/>
<path d="M32.8 9.83444C33.1774 9.83444 33.4834 9.5285 33.4834 9.15111C33.4834 8.77371 33.1774 8.46777 32.8 8.46777C32.4226 8.46777 32.1167 8.77371 32.1167 9.15111C32.1167 9.5285 32.4226 9.83444 32.8 9.83444Z" fill="#4D4D4D"/>
<path d="M28.7001 7.78439C29.0775 7.78439 29.3834 7.47845 29.3834 7.10106C29.3834 6.72366 29.0775 6.41772 28.7001 6.41772C28.3227 6.41772 28.0167 6.72366 28.0167 7.10106C28.0167 7.47845 28.3227 7.78439 28.7001 7.78439Z" fill="#4D4D4D"/>
<path d="M30.0666 9.83444C30.444 9.83444 30.75 9.5285 30.75 9.15111C30.75 8.77371 30.444 8.46777 30.0666 8.46777C29.6892 8.46777 29.3833 8.77371 29.3833 9.15111C29.3833 9.5285 29.6892 9.83444 30.0666 9.83444Z" fill="#4D4D4D"/>
<path d="M25.9667 7.78439C26.3441 7.78439 26.65 7.47845 26.65 7.10106C26.65 6.72366 26.3441 6.41772 25.9667 6.41772C25.5893 6.41772 25.2833 6.72366 25.2833 7.10106C25.2833 7.47845 25.5893 7.78439 25.9667 7.78439Z" fill="#4D4D4D"/>
<path d="M27.3334 9.83444C27.7108 9.83444 28.0167 9.5285 28.0167 9.15111C28.0167 8.77371 27.7108 8.46777 27.3334 8.46777C26.956 8.46777 26.65 8.77371 26.65 9.15111C26.65 9.5285 26.956 9.83444 27.3334 9.83444Z" fill="#4D4D4D"/>
<path d="M23.2334 7.78439C23.6108 7.78439 23.9167 7.47845 23.9167 7.10106C23.9167 6.72366 23.6108 6.41772 23.2334 6.41772C22.856 6.41772 22.55 6.72366 22.55 7.10106C22.55 7.47845 22.856 7.78439 23.2334 7.78439Z" fill="#4D4D4D"/>
<path d="M24.6 9.83444C24.9774 9.83444 25.2833 9.5285 25.2833 9.15111C25.2833 8.77371 24.9774 8.46777 24.6 8.46777C24.2226 8.46777 23.9166 8.77371 23.9166 9.15111C23.9166 9.5285 24.2226 9.83444 24.6 9.83444Z" fill="#4D4D4D"/>
<path d="M41 12.1523V4.09985C41 2.3635 39.5875 0.95105 37.8512 0.95105H3.1488C1.41245 0.95105 0 2.3635 0 4.09985V12.1516C0 13.1554 0.480383 14.0403 1.21428 14.617C0.480383 15.1945 0 16.08 0 17.0832V25.1349C0 26.1387 0.480383 27.0236 1.21428 27.6004C0.480383 28.1778 0 29.0634 0 30.0665V38.1182C0 39.8553 1.41245 41.2677 3.1488 41.2677H37.8505C39.5869 41.2677 40.9993 39.8553 40.9993 38.1189V30.0665C40.9993 29.0627 40.5189 28.1778 39.785 27.601C40.5196 27.0243 41 26.1387 41 25.1356V17.0832C41 16.0794 40.5196 15.1944 39.7857 14.6177C40.5196 14.041 41 13.1554 41 12.1523ZM39.6333 30.0665V38.1182C39.6333 39.1009 38.8338 39.9004 37.8512 39.9004H3.1488C2.16617 39.9011 1.36667 39.1015 1.36667 38.1189V30.0665C1.36667 29.0839 2.16617 28.2844 3.1488 28.2844H37.8505C38.8338 28.2844 39.6333 29.0839 39.6333 30.0665ZM39.6333 17.0832V25.1349C39.6333 26.1175 38.8338 26.917 37.8512 26.917H3.1488C2.16617 26.9177 1.36667 26.1182 1.36667 25.1356V17.0832C1.36667 16.1005 2.16617 15.301 3.1488 15.301H37.8505C38.8338 15.301 39.6333 16.1005 39.6333 17.0832ZM3.1488 13.9344C2.16617 13.9344 1.36667 13.1349 1.36667 12.1523V4.09985C1.36667 3.11722 2.16617 2.31772 3.1488 2.31772H37.8505C38.8338 2.31772 39.6333 3.11722 39.6333 4.09985V12.1516C39.6333 13.1342 38.8338 13.9337 37.8512 13.9337H3.1488V13.9344Z" fill="#4D4D4D"/>
<path d="M7.17498 24.1844C8.87033 24.1844 10.25 22.8048 10.25 21.1094C10.25 19.4141 8.87033 18.0344 7.17498 18.0344C5.47963 18.0344 4.09998 19.4141 4.09998 21.1094C4.09998 22.8048 5.47963 24.1844 7.17498 24.1844ZM7.17498 19.4011C8.11661 19.4011 8.88331 20.1671 8.88331 21.1094C8.88331 22.0517 8.11661 22.8178 7.17498 22.8178C6.23334 22.8178 5.46664 22.0517 5.46664 21.1094C5.46664 20.1671 6.23334 19.4011 7.17498 19.4011Z" fill="#4D4D4D"/>
<path d="M34.1667 20.7678C34.5441 20.7678 34.8501 20.4618 34.8501 20.0845C34.8501 19.7071 34.5441 19.4011 34.1667 19.4011C33.7893 19.4011 33.4834 19.7071 33.4834 20.0845C33.4834 20.4618 33.7893 20.7678 34.1667 20.7678Z" fill="#4D4D4D"/>
<path d="M31.4333 20.7678C31.8107 20.7678 32.1167 20.4618 32.1167 20.0845C32.1167 19.7071 31.8107 19.4011 31.4333 19.4011C31.0559 19.4011 30.75 19.7071 30.75 20.0845C30.75 20.4618 31.0559 20.7678 31.4333 20.7678Z" fill="#4D4D4D"/>
<path d="M35.5333 22.8177C35.9107 22.8177 36.2166 22.5118 36.2166 22.1344C36.2166 21.757 35.9107 21.451 35.5333 21.451C35.1559 21.451 34.85 21.757 34.85 22.1344C34.85 22.5118 35.1559 22.8177 35.5333 22.8177Z" fill="#4D4D4D"/>
<path d="M32.8 22.8177C33.1774 22.8177 33.4834 22.5118 33.4834 22.1344C33.4834 21.757 33.1774 21.451 32.8 21.451C32.4226 21.451 32.1167 21.757 32.1167 22.1344C32.1167 22.5118 32.4226 22.8177 32.8 22.8177Z" fill="#4D4D4D"/>
<path d="M28.7001 20.7678C29.0775 20.7678 29.3834 20.4618 29.3834 20.0845C29.3834 19.7071 29.0775 19.4011 28.7001 19.4011C28.3227 19.4011 28.0167 19.7071 28.0167 20.0845C28.0167 20.4618 28.3227 20.7678 28.7001 20.7678Z" fill="#4D4D4D"/>
<path d="M30.0666 22.8177C30.444 22.8177 30.75 22.5118 30.75 22.1344C30.75 21.757 30.444 21.451 30.0666 21.451C29.6892 21.451 29.3833 21.757 29.3833 22.1344C29.3833 22.5118 29.6892 22.8177 30.0666 22.8177Z" fill="#4D4D4D"/>
<path d="M25.9667 20.7678C26.3441 20.7678 26.65 20.4618 26.65 20.0845C26.65 19.7071 26.3441 19.4011 25.9667 19.4011C25.5893 19.4011 25.2833 19.7071 25.2833 20.0845C25.2833 20.4618 25.5893 20.7678 25.9667 20.7678Z" fill="#4D4D4D"/>
<path d="M27.3334 22.8177C27.7108 22.8177 28.0167 22.5118 28.0167 22.1344C28.0167 21.757 27.7108 21.451 27.3334 21.451C26.956 21.451 26.65 21.757 26.65 22.1344C26.65 22.5118 26.956 22.8177 27.3334 22.8177Z" fill="#4D4D4D"/>
<path d="M23.2334 20.7678C23.6108 20.7678 23.9167 20.4618 23.9167 20.0845C23.9167 19.7071 23.6108 19.4011 23.2334 19.4011C22.856 19.4011 22.55 19.7071 22.55 20.0845C22.55 20.4618 22.856 20.7678 23.2334 20.7678Z" fill="#4D4D4D"/>
<path d="M24.6 22.8177C24.9774 22.8177 25.2833 22.5118 25.2833 22.1344C25.2833 21.757 24.9774 21.451 24.6 21.451C24.2226 21.451 23.9166 21.757 23.9166 22.1344C23.9166 22.5118 24.2226 22.8177 24.6 22.8177Z" fill="#4D4D4D"/>
<path d="M7.17498 37.1677C8.87033 37.1677 10.25 35.7881 10.25 34.0927C10.25 32.3974 8.87033 31.0177 7.17498 31.0177C5.47963 31.0177 4.09998 32.3974 4.09998 34.0927C4.09998 35.7881 5.47963 37.1677 7.17498 37.1677ZM7.17498 32.3844C8.11661 32.3844 8.88331 33.1504 8.88331 34.0927C8.88331 35.035 8.11661 35.801 7.17498 35.801C6.23334 35.801 5.46664 35.035 5.46664 34.0927C5.46664 33.1504 6.23334 32.3844 7.17498 32.3844Z" fill="#4D4D4D"/>
<path d="M34.1667 33.7511C34.5441 33.7511 34.8501 33.4451 34.8501 33.0677C34.8501 32.6903 34.5441 32.3844 34.1667 32.3844C33.7893 32.3844 33.4834 32.6903 33.4834 33.0677C33.4834 33.4451 33.7893 33.7511 34.1667 33.7511Z" fill="#4D4D4D"/>
<path d="M31.4333 33.7511C31.8107 33.7511 32.1167 33.4451 32.1167 33.0677C32.1167 32.6903 31.8107 32.3844 31.4333 32.3844C31.0559 32.3844 30.75 32.6903 30.75 33.0677C30.75 33.4451 31.0559 33.7511 31.4333 33.7511Z" fill="#4D4D4D"/>
<path d="M35.5333 35.801C35.9107 35.801 36.2166 35.4951 36.2166 35.1177C36.2166 34.7403 35.9107 34.4343 35.5333 34.4343C35.1559 34.4343 34.85 34.7403 34.85 35.1177C34.85 35.4951 35.1559 35.801 35.5333 35.801Z" fill="#4D4D4D"/>
<path d="M32.8 35.801C33.1774 35.801 33.4834 35.4951 33.4834 35.1177C33.4834 34.7403 33.1774 34.4343 32.8 34.4343C32.4226 34.4343 32.1167 34.7403 32.1167 35.1177C32.1167 35.4951 32.4226 35.801 32.8 35.801Z" fill="#4D4D4D"/>
<path d="M28.7001 33.7511C29.0775 33.7511 29.3834 33.4451 29.3834 33.0677C29.3834 32.6903 29.0775 32.3844 28.7001 32.3844C28.3227 32.3844 28.0167 32.6903 28.0167 33.0677C28.0167 33.4451 28.3227 33.7511 28.7001 33.7511Z" fill="#4D4D4D"/>
<path d="M30.0666 35.801C30.444 35.801 30.75 35.4951 30.75 35.1177C30.75 34.7403 30.444 34.4343 30.0666 34.4343C29.6892 34.4343 29.3833 34.7403 29.3833 35.1177C29.3833 35.4951 29.6892 35.801 30.0666 35.801Z" fill="#4D4D4D"/>
<path d="M25.9667 33.7511C26.3441 33.7511 26.65 33.4451 26.65 33.0677C26.65 32.6903 26.3441 32.3844 25.9667 32.3844C25.5893 32.3844 25.2833 32.6903 25.2833 33.0677C25.2833 33.4451 25.5893 33.7511 25.9667 33.7511Z" fill="#4D4D4D"/>
<path d="M27.3334 35.801C27.7108 35.801 28.0167 35.4951 28.0167 35.1177C28.0167 34.7403 27.7108 34.4343 27.3334 34.4343C26.956 34.4343 26.65 34.7403 26.65 35.1177C26.65 35.4951 26.956 35.801 27.3334 35.801Z" fill="#4D4D4D"/>
<path d="M23.2334 33.7511C23.6108 33.7511 23.9167 33.4451 23.9167 33.0677C23.9167 32.6903 23.6108 32.3844 23.2334 32.3844C22.856 32.3844 22.55 32.6903 22.55 33.0677C22.55 33.4451 22.856 33.7511 23.2334 33.7511Z" fill="#4D4D4D"/>
<path d="M24.6 35.801C24.9774 35.801 25.2833 35.4951 25.2833 35.1177C25.2833 34.7403 24.9774 34.4343 24.6 34.4343C24.2226 34.4343 23.9166 34.7403 23.9166 35.1177C23.9166 35.4951 24.2226 35.801 24.6 35.801Z" fill="#4D4D4D"/>
</g>
<defs>
<clipPath id="clip0">
<rect width="41" height="41" fill="white" transform="translate(0 0.609375)"/>
</clipPath>
</defs>
</svg>
