<svg width="56" height="57" viewBox="0 0 56 57" fill="none" xmlns="http://www.w3.org/2000/svg">
<g clip-path="url(#clip0)">
<path d="M45.7333 0.90625H10.2666C7.69064 0.909283 5.60301 2.99692 5.59998 5.57292V30.7729C5.60301 33.3489 7.69064 35.4366 10.2666 35.4396H23.029L21.6962 40.1063H18.6666V41.9729H37.3333V40.1063H34.3037L32.9709 35.4396H45.7333C48.3093 35.4366 50.3969 33.3489 50.4 30.7729V5.57292C50.3969 2.99692 48.3093 0.909283 45.7333 0.90625ZM23.6376 40.1063L24.9704 35.4396H31.0296L32.3624 40.1063H23.6376ZM48.5333 30.7729C48.5333 32.3193 47.2797 33.5729 45.7333 33.5729H10.2666C8.72023 33.5729 7.46664 32.3193 7.46664 30.7729V28.9063H48.5333V30.7729ZM48.5333 27.0396H7.46664V5.57292C7.46664 4.0265 8.72023 2.77292 10.2666 2.77292H45.7333C47.2797 2.77292 48.5333 4.0265 48.5333 5.57292V27.0396Z" fill="#4D4D4D"/>
<path d="M28.9652 9.06924L25.2284 22.1284L27.0222 22.6417L30.759 9.58254L28.9652 9.06924Z" fill="#4D4D4D"/>
<path d="M22.9973 11.8897L21.8026 10.4561L16.2026 15.1227C15.8068 15.4529 15.7535 16.0414 16.0836 16.4373C16.1197 16.4805 16.1595 16.5204 16.2026 16.5563L21.8026 21.223L22.9973 19.7894L18.2578 15.8395L22.9973 11.8897Z" fill="#4D4D4D"/>
<path d="M39.9164 15.2417C39.8803 15.1986 39.8405 15.1587 39.7974 15.1227L34.1974 10.4561L33.0027 11.8897L37.7422 15.8395L33.0027 19.7894L34.1974 21.223L39.7974 16.5563C40.1932 16.2262 40.2465 15.6377 39.9164 15.2417Z" fill="#4D4D4D"/>
</g>
<defs>
<clipPath id="clip0">
<rect width="56" height="56" fill="white" transform="translate(0 0.90625)"/>
</clipPath>
</defs>
</svg>
